<?xml version="1.0" encoding="UTF-8"?>
<svg width="1920px" height="1920px" viewBox="0 0 1920 1920" version="1.1" xmlns="http://www.w3.org/2000/svg" xmlns:xlink="http://www.w3.org/1999/xlink">
    <title>icon_Standard</title>
    <g id="icon_Standard" stroke="none" stroke-width="1" fill="none" fill-rule="evenodd">
        <g id="Group-36" transform="translate(109.000000, 314.000000)">
            <path d="M821.104818,211.441967 C815.996232,206.885661 810.77719,202.550266 805.530534,198.242485 C804.315518,197.193154 803.100503,196.171437 801.857874,195.122106 L801.857874,195.177334 C622.201323,51.17043 360.172271,48.9060837 177.036358,202.550266 C71.9651661,290.749317 12.9540918,413.438228 2.6264634,540.15878 C-7.53548109,664.946354 29.4672515,793.599885 116.285603,897.069466 C291.275392,1105.63785 602.236416,1132.83762 810.804804,957.820221 L971.407709,823.064001 L1043.2869,762.75507 C1137.69909,683.530562 1236.86089,642.551417 1305.48163,631.119229 C1191.49113,518.122825 1060.57325,414.294261 821.104818,211.441967" id="Fill-22" fill="#92F19A"></path>
            <path d="M1317.60417,1155.22704 L1033.67723,1030.60515 C1092.79876,958.063225 1143.30473,877.982684 1183.56591,791.771839 C1186.60345,785.227326 1189.97236,778.876111 1193.47933,772.635352 C1151.83745,792.517417 1115.0004,823.030864 1086.97221,861.359068 C1030.88822,938.208773 965.884913,1007.07804 893.895268,1066.8623 L1148.46855,1243.86791 C1279.57972,1334.99405 1462.57756,1295.22992 1542.74095,1152.5761 C1474.03737,1184.5807 1392.46567,1188.08767 1317.60417,1155.22704" id="Fill-25" fill="#00C890"></path>
            <path d="M841.464605,124.286725 C836.356019,119.758033 831.136977,115.395024 825.917935,111.087243 C824.675306,110.037912 823.460291,109.016194 822.217661,107.966863 L822.245275,108.022091 C642.56111,-35.9848123 380.532058,-38.2491586 197.42376,115.395024 C92.3249533,203.594075 33.3414929,326.282986 23.0138645,453.031152 C12.8243061,577.791112 49.8270387,706.472257 136.64539,809.941838 C311.662793,1018.48261 622.596203,1045.68238 831.164591,870.664979 L991.767496,735.936373 L1063.6743,675.599827 C1158.0865,596.37532 1257.22068,555.396174 1325.86903,543.963987 C1211.85091,430.967582 1080.93304,327.139019 841.464605,124.286725" id="Fill-27" fill="#00C890"></path>
            <path d="M1193.47657,772.635352 C1234.40049,753.084654 1279.99117,743.806357 1326.49311,747.534244 C1381.99721,751.980095 1437.00426,773.518999 1483.42336,813.586883 C1579.40955,896.401208 1605.28385,1037.59149 1544.80923,1148.95867 C1544.1465,1150.20129 1543.40092,1151.36108 1542.73818,1152.5761 C1609.3431,1121.51037 1663.8531,1063.63147 1688.23624,985.760046 C1726.09501,864.810815 1673.49038,731.214382 1563.36583,668.503035 C1510.07085,638.127657 1451.94342,627.606731 1396.63262,633.930332 C1310.2837,643.788523 1235.75357,697.332029 1193.47657,772.635352" id="Fill-30" fill="#025376"></path>
            <path d="M1483.4344,813.597929 C1436.98769,773.530045 1381.98064,751.991141 1326.50416,747.54529 C1280.00221,743.817403 1234.41153,753.0957 1193.48762,772.646397 C1189.98064,778.887157 1186.58412,785.238372 1183.54658,791.755271 C1143.31302,877.993729 1092.80705,958.07427 1033.6579,1030.61619 L1317.61246,1155.23808 C1392.47395,1188.09872 1474.04565,1184.59174 1542.72162,1152.58714 C1543.41197,1151.37213 1544.12993,1150.21234 1544.82028,1148.96971 C1605.26728,1037.60253 1579.39298,896.412254 1483.4344,813.597929" id="Fill-34" fill="#009F9E"></path>
        </g>
    </g>
</svg>